<svg class="svg-icon" viewBox="0 0 20 20" fill="none" xmlns="http://www.w3.org/2000/svg">
    <g clip-path="url(#clip0_4_214)">
    <path d="M13.3333 13.3334V15.6667C13.3333 16.6001 13.3333 17.0668 13.1517 17.4233C12.9919 17.7369 12.7369 17.9919 12.4233 18.1517C12.0668 18.3334 11.6001 18.3334 10.6667 18.3334H4.33332C3.3999 18.3334 2.93319 18.3334 2.57667 18.1517C2.26307 17.9919 2.0081 17.7369 1.84831 17.4233C1.66666 17.0668 1.66666 16.6001 1.66666 15.6667V9.33335C1.66666 8.39993 1.66666 7.93322 1.84831 7.5767C2.0081 7.2631 2.26307 7.00813 2.57667 6.84834C2.93319 6.66669 3.3999 6.66669 4.33332 6.66669H6.66666M9.33332 13.3334H15.6667C16.6001 13.3334 17.0668 13.3334 17.4233 13.1517C17.7369 12.9919 17.9919 12.7369 18.1517 12.4233C18.3333 12.0668 18.3333 11.6001 18.3333 10.6667V4.33335C18.3333 3.39993 18.3333 2.93322 18.1517 2.5767C17.9919 2.2631 17.7369 2.00813 17.4233 1.84834C17.0668 1.66669 16.6001 1.66669 15.6667 1.66669H9.33332C8.3999 1.66669 7.93319 1.66669 7.57667 1.84834C7.26307 2.00813 7.0081 2.2631 6.84831 2.5767C6.66666 2.93322 6.66666 3.39993 6.66666 4.33335V10.6667C6.66666 11.6001 6.66666 12.0668 6.84831 12.4233C7.0081 12.7369 7.26307 12.9919 7.57667 13.1517C7.93319 13.3334 8.3999 13.3334 9.33332 13.3334Z" stroke="white" stroke-width="1.67" stroke-linecap="round" stroke-linejoin="round"/>
    </g>
    <defs>
    <clipPath id="clip0_4_214">
    <rect width="20" height="20" fill="white"/>
    </clipPath>
    </defs>
</svg>