<svg width="1280" height="80" viewBox="0 0 1280 80" fill="none" xmlns="http://www.w3.org/2000/svg">
<path d="M20.0472 38.6811V26.5866H23.8976V38.6811H20.0472Z" fill="white"/>
<path d="M21.9764 25.1772C21.4357 25.1772 20.9711 24.9987 20.5827 24.6417C20.1942 24.2795 20 23.8438 20 23.3346C20 22.8307 20.1942 22.4003 20.5827 22.0433C20.9711 21.6811 21.4357 21.5 21.9764 21.5C22.5223 21.5 22.9869 21.6811 23.3701 22.0433C23.7585 22.4003 23.9528 22.8307 23.9528 23.3346C23.9528 23.8438 23.7585 24.2795 23.3701 24.6417C22.9869 24.9987 22.5223 25.1772 21.9764 25.1772Z" fill="white"/>
<path d="M102.272 26.5866V38.6811H106.122V26.5866H102.272Z" fill="white"/>
<path d="M102.807 24.6417C103.196 24.9987 103.66 25.1772 104.201 25.1772C104.747 25.1772 105.211 24.9987 105.595 24.6417C105.983 24.2795 106.177 23.8438 106.177 23.3346C106.177 22.8307 105.983 22.4003 105.595 22.0433C105.211 21.6811 104.747 21.5 104.201 21.5C103.66 21.5 103.196 21.6811 102.807 22.0433C102.419 22.4003 102.225 22.8307 102.225 23.3346C102.225 23.8438 102.419 24.2795 102.807 24.6417Z" fill="white"/>
<path d="M123.642 35.0503V38.6811H119.791V22.5551H123.642V30.9173H123.815L127.216 26.5866H131.579L127.284 31.858L131.752 38.6811H127.303L124.421 34.107L123.642 35.0503Z" fill="white"/>
<path d="M139.873 26.5866V33.4606C139.873 33.9278 139.781 34.3268 139.597 34.6575C139.419 34.9829 139.175 35.2323 138.865 35.4055C138.56 35.5735 138.217 35.6575 137.833 35.6575C137.245 35.6575 136.781 35.4685 136.44 35.0905C136.099 34.7126 135.925 34.1955 135.92 33.5394V26.5866H132.07V34.2953C132.075 35.2087 132.251 36.0066 132.597 36.689C132.944 37.3661 133.429 37.8937 134.054 38.2716C134.679 38.6496 135.403 38.8386 136.227 38.8386C137.135 38.8386 137.91 38.6234 138.55 38.1929C139.196 37.7572 139.652 37.1693 139.92 36.4291H140.046V38.6811H143.715V26.5866H139.873Z" fill="white"/>
<path fill-rule="evenodd" clip-rule="evenodd" d="M111.096 38.8858C110.324 38.8858 109.639 38.7572 109.04 38.5C108.447 38.2375 107.977 37.8438 107.631 37.3189C107.29 36.7887 107.119 36.1246 107.119 35.3267C107.119 34.6548 107.237 34.0879 107.473 33.626C107.71 33.164 108.035 32.7887 108.45 32.5C108.865 32.2113 109.342 31.9934 109.883 31.8464C110.424 31.6942 111.001 31.5918 111.615 31.5393C112.303 31.4764 112.857 31.4107 113.277 31.3425C113.697 31.269 114.001 31.1666 114.19 31.0354C114.384 30.8989 114.481 30.7073 114.481 30.4606V30.4212C114.481 30.017 114.342 29.7047 114.064 29.4842C113.786 29.2638 113.41 29.1535 112.938 29.1535C112.429 29.1535 112.019 29.2638 111.71 29.4842C111.4 29.7047 111.203 30.0092 111.119 30.3976L107.568 30.2716C107.673 29.5367 107.943 28.8806 108.379 28.3031C108.82 27.7205 109.424 27.2638 110.19 26.933C110.962 26.5971 111.888 26.4291 112.97 26.4291C113.741 26.4291 114.452 26.521 115.103 26.7047C115.754 26.8832 116.321 27.1456 116.804 27.4921C117.287 27.8333 117.66 28.2533 117.922 28.7519C118.19 29.2506 118.324 29.8202 118.324 30.4606V38.6811H114.702V36.996H114.607C114.392 37.4055 114.117 37.7519 113.781 38.0354C113.45 38.3189 113.059 38.5315 112.607 38.6732C112.161 38.8149 111.657 38.8858 111.096 38.8858ZM112.284 36.3661C112.699 36.3661 113.072 36.2821 113.403 36.1142C113.739 35.9462 114.006 35.7152 114.206 35.4212C114.405 35.122 114.505 34.7756 114.505 34.3819V33.2323C114.395 33.29 114.261 33.3425 114.103 33.3897C113.951 33.437 113.783 33.4816 113.599 33.5236C113.416 33.5656 113.227 33.6023 113.033 33.6338C112.838 33.6653 112.652 33.6942 112.473 33.7205C112.111 33.7782 111.802 33.8674 111.544 33.9882C111.292 34.1089 111.098 34.2664 110.962 34.4606C110.83 34.6496 110.765 34.8753 110.765 35.1378C110.765 35.5367 110.907 35.8412 111.19 36.0512C111.479 36.2611 111.844 36.3661 112.284 36.3661Z" fill="white"/>
<path d="M100.964 30.2795L97.4284 30.374C97.3917 30.122 97.292 29.8989 97.1292 29.7047C96.9665 29.5052 96.7539 29.3504 96.4914 29.2401C96.2342 29.1247 95.935 29.0669 95.5938 29.0669C95.1476 29.0669 94.767 29.1561 94.4521 29.3346C94.1423 29.5131 93.9901 29.7546 93.9954 30.059C93.9901 30.2953 94.0846 30.5 94.2788 30.6732C94.4783 30.8464 94.8326 30.9855 95.3418 31.0905L97.6725 31.5315C98.8799 31.7624 99.7775 32.1456 100.365 32.6811C100.959 33.2165 101.258 33.9252 101.263 34.8071C101.258 35.6365 101.011 36.3582 100.523 36.9724C100.04 37.5866 99.3786 38.0643 98.5387 38.4055C97.6988 38.7414 96.7382 38.9094 95.6568 38.9094C93.9298 38.9094 92.5675 38.5551 91.5702 37.8464C90.5781 37.1325 90.0111 36.1771 89.8694 34.9803L93.6725 34.8858C93.7565 35.3268 93.9744 35.6627 94.3261 35.8937C94.6778 36.1246 95.1266 36.2401 95.6725 36.2401C96.166 36.2401 96.5675 36.1483 96.8773 35.9645C97.187 35.7808 97.3444 35.5367 97.3497 35.2323C97.3444 34.9593 97.2237 34.7414 96.9875 34.5787C96.7513 34.4107 96.3812 34.2795 95.8773 34.185L93.767 33.7834C92.5544 33.563 91.6515 33.1561 91.0584 32.563C90.4652 31.9645 90.1712 31.2034 90.1765 30.2795C90.1712 29.4711 90.3864 28.7808 90.8221 28.2086C91.2578 27.6312 91.8773 27.1903 92.6804 26.8858C93.4836 26.5813 94.4311 26.4291 95.5229 26.4291C97.1607 26.4291 98.4521 26.7729 99.3969 27.4606C100.342 28.143 100.864 29.0827 100.964 30.2795Z" fill="white"/>
<path fill-rule="evenodd" clip-rule="evenodd" d="M80.3094 38.1614C81.2281 38.6601 82.3199 38.9094 83.585 38.9094C84.6402 38.9094 85.5693 38.7493 86.3724 38.4291C87.1756 38.1037 87.8239 37.6496 88.3173 37.0669C88.816 36.479 89.1388 35.7887 89.2858 34.996L85.7504 34.8937C85.6507 35.1614 85.501 35.3871 85.3016 35.5708C85.1021 35.7546 84.8632 35.8937 84.585 35.9882C84.3068 36.0827 83.9971 36.1299 83.6559 36.1299C83.1625 36.1299 82.7373 36.0275 82.3803 35.8228C82.0234 35.6181 81.7478 35.332 81.5535 34.9645C81.3593 34.5918 81.2622 34.1588 81.2622 33.6653V33.563H89.3252V32.6023C89.3252 31.6102 89.1808 30.7309 88.8921 29.9645C88.6034 29.1929 88.1992 28.5446 87.6795 28.0197C87.1598 27.4947 86.543 27.0984 85.8291 26.8307C85.1152 26.563 84.3278 26.4291 83.4669 26.4291C82.2491 26.4291 81.1913 26.6916 80.2937 27.2165C79.3961 27.7362 78.7005 28.4659 78.2071 29.4055C77.7136 30.3399 77.4669 31.4317 77.4669 32.6811C77.4669 33.9672 77.711 35.0774 78.1992 36.0118C78.6926 36.9409 79.3961 37.6575 80.3094 38.1614ZM85.7425 31.3267H81.2645C81.2836 30.9375 81.3878 30.5884 81.5772 30.2795C81.7766 29.9488 82.047 29.689 82.3882 29.5C82.7294 29.3058 83.1152 29.2086 83.5457 29.2086C83.9709 29.2086 84.3462 29.3005 84.6716 29.4842C85.0024 29.6627 85.2622 29.9121 85.4512 30.2323C85.6401 30.5525 85.7373 30.9173 85.7425 31.3267Z" fill="white"/>
<path d="M68.6157 31.7834V38.6811H64.7653V26.5866H68.4267V28.8071H68.5605C68.8283 28.0669 69.2849 27.4869 69.9306 27.0669C70.5763 26.6417 71.3453 26.4291 72.2377 26.4291C73.0881 26.4291 73.8256 26.6207 74.4503 27.0039C75.0802 27.3819 75.5684 27.9121 75.9149 28.5945C76.2666 29.2716 76.4398 30.0643 76.4346 30.9724V38.6811H72.5842V31.7283C72.5894 31.0564 72.4188 30.5315 72.0723 30.1535C71.7311 29.7756 71.2561 29.5866 70.6471 29.5866C70.2429 29.5866 69.886 29.6758 69.5763 29.8543C69.2718 30.0275 69.0356 30.2769 68.8676 30.6023C68.7049 30.9278 68.6209 31.3215 68.6157 31.7834Z" fill="white"/>
<path fill-rule="evenodd" clip-rule="evenodd" d="M54.2939 38.1299C55.2073 38.6496 56.2992 38.9094 57.5695 38.9094C58.8398 38.9094 59.9291 38.6496 60.8372 38.1299C61.7506 37.605 62.4514 36.8753 62.9396 35.9409C63.433 35.0013 63.6797 33.9121 63.6797 32.6732C63.6797 31.4291 63.433 30.3399 62.9396 29.4055C62.4514 28.4659 61.7506 27.7362 60.8372 27.2165C59.9291 26.6916 58.8398 26.4291 57.5695 26.4291C56.2992 26.4291 55.2073 26.6916 54.2939 27.2165C53.3858 27.7362 52.685 28.4659 52.1916 29.4055C51.7034 30.3399 51.4593 31.4291 51.4593 32.6732C51.4593 33.9121 51.7034 35.0013 52.1916 35.9409C52.685 36.8753 53.3858 37.605 54.2939 38.1299ZM58.7664 35.5787C58.4461 35.8622 58.0551 36.0039 57.5931 36.0039C57.1154 36.0039 56.7112 35.8622 56.3805 35.5787C56.0551 35.2953 55.8057 34.9016 55.6325 34.3976C55.4645 33.8937 55.3805 33.311 55.3805 32.6496C55.3805 31.9777 55.4645 31.3897 55.6325 30.8858C55.8057 30.3819 56.0551 29.9882 56.3805 29.7047C56.7112 29.4212 57.1154 29.2795 57.5931 29.2795C58.0551 29.2795 58.4461 29.4212 58.7664 29.7047C59.0866 29.9882 59.3307 30.3819 59.4986 30.8858C59.6719 31.3897 59.7585 31.9777 59.7585 32.6496C59.7585 33.311 59.6719 33.8937 59.4986 34.3976C59.3307 34.9016 59.0866 35.2953 58.7664 35.5787Z" fill="white"/>
<path fill-rule="evenodd" clip-rule="evenodd" d="M43.045 38.8543C42.1527 38.8543 41.3416 38.6233 40.612 38.1614C39.8823 37.6995 39.2996 37.0065 38.8639 36.0827C38.4283 35.1588 38.2104 34.0118 38.2104 32.6417C38.2104 31.2191 38.4361 30.0485 38.8876 29.1299C39.339 28.2113 39.9296 27.5315 40.6592 27.0905C41.3941 26.6496 42.1842 26.4291 43.0293 26.4291C43.6645 26.4291 44.2078 26.5394 44.6592 26.7598C45.1107 26.975 45.4834 27.2533 45.7773 27.5945C46.0713 27.9357 46.2944 28.29 46.4466 28.6575H46.5254V22.5551H50.3758V38.6811H46.5647V36.7205H46.4466C46.2839 37.0932 46.0529 37.4422 45.7537 37.7677C45.4545 38.0932 45.0792 38.3556 44.6277 38.5551C44.1815 38.7546 43.654 38.8543 43.045 38.8543ZM44.3836 35.8543C44.8508 35.8543 45.2498 35.7231 45.5805 35.4606C45.9112 35.1929 46.1658 34.8176 46.3443 34.3346C46.5227 33.8517 46.612 33.2848 46.612 32.6338C46.612 31.9724 46.5227 31.4029 46.3443 30.9252C46.171 30.4475 45.9164 30.08 45.5805 29.8228C45.2498 29.5656 44.8508 29.437 44.3836 29.437C43.9059 29.437 43.5017 29.5682 43.171 29.8307C42.8403 30.0932 42.5884 30.4632 42.4151 30.9409C42.2471 31.4186 42.1632 31.9829 42.1632 32.6338C42.1632 33.2848 42.2498 33.8517 42.423 34.3346C42.5962 34.8176 42.8456 35.1929 43.171 35.4606C43.5017 35.7231 43.9059 35.8543 44.3836 35.8543Z" fill="white"/>
<path d="M29.3119 38.6811V31.7834C29.3171 31.3215 29.4011 30.9278 29.5638 30.6023C29.7318 30.2769 29.968 30.0275 30.2725 29.8543C30.5822 29.6758 30.9392 29.5866 31.3434 29.5866C31.9523 29.5866 32.4274 29.7756 32.7686 30.1535C33.115 30.5315 33.2856 31.0564 33.2804 31.7283V38.6811H37.1308V30.9724C37.136 30.0643 36.9628 29.2716 36.6111 28.5945C36.2646 27.9121 35.7764 27.3819 35.1465 27.0039C34.5219 26.6207 33.7843 26.4291 32.9339 26.4291C32.0415 26.4291 31.2725 26.6417 30.6268 27.0669C29.9812 27.4869 29.5245 28.0669 29.2568 28.8071H29.1229V26.5866H25.4615V38.6811H29.3119Z" fill="white"/>
<path d="M122.734 55.311V44.5603H121.496V55.311H122.734Z" fill="white"/>
<path d="M136.248 48.2979V47.248H134.526V45.3162H133.287V47.248H132.07V48.2979H133.287V53.3372C133.287 53.8062 133.396 54.1946 133.613 54.5026C133.833 54.8106 134.11 55.0398 134.442 55.1903C134.778 55.3407 135.121 55.416 135.471 55.416C135.702 55.416 135.893 55.3985 136.043 55.3635C136.194 55.332 136.311 55.3005 136.395 55.269L136.143 54.1561L135.933 54.1981C135.846 54.2121 135.734 54.2191 135.597 54.2191C135.415 54.2191 135.242 54.1911 135.077 54.1351C134.916 54.0756 134.784 53.9602 134.679 53.7887C134.577 53.6137 134.526 53.3512 134.526 53.0013V48.2979H136.248Z" fill="white"/>
<path fill-rule="evenodd" clip-rule="evenodd" d="M139.099 54.9646C139.663 55.3075 140.333 55.479 141.11 55.479C141.656 55.479 142.148 55.395 142.585 55.227C143.022 55.0555 143.39 54.8176 143.687 54.5131C143.985 54.2052 144.197 53.8482 144.323 53.4422L143.126 53.1063C143.021 53.3863 142.872 53.6207 142.679 53.8097C142.487 53.9952 142.258 54.1352 141.992 54.2297C141.729 54.3206 141.435 54.3661 141.11 54.3661C140.609 54.3661 140.17 54.2576 139.792 54.0407C139.414 53.8202 139.119 53.5 138.905 53.08C138.715 52.6961 138.611 52.2359 138.593 51.6995H144.448V51.1745C144.448 50.4221 144.349 49.7887 144.149 49.2743C143.95 48.7598 143.682 48.3469 143.346 48.0354C143.01 47.7205 142.637 47.493 142.228 47.353C141.819 47.213 141.404 47.143 140.984 47.143C140.256 47.143 139.619 47.3215 139.073 47.6785C138.531 48.0319 138.107 48.5254 137.803 49.1588C137.502 49.7887 137.351 50.5166 137.351 51.3425C137.351 52.1684 137.502 52.8928 137.803 53.5157C138.107 54.1352 138.539 54.6181 139.099 54.9646ZM138.596 50.6286C138.62 50.2546 138.714 49.9011 138.879 49.5682C139.071 49.1798 139.346 48.8648 139.703 48.6234C140.064 48.3784 140.49 48.2559 140.984 48.2559C141.432 48.2559 141.82 48.3591 142.149 48.5656C142.482 48.7721 142.737 49.0538 142.916 49.4108C143.098 49.7677 143.189 50.1737 143.189 50.6286H138.596Z" fill="white"/>
<path fill-rule="evenodd" clip-rule="evenodd" d="M127.08 55.5C126.57 55.5 126.106 55.4038 125.689 55.2113C125.273 55.0153 124.942 54.7336 124.697 54.3661C124.452 53.9952 124.33 53.5472 124.33 53.0223C124.33 52.5604 124.421 52.1859 124.603 51.8989C124.785 51.6085 125.028 51.381 125.332 51.2165C125.637 51.052 125.973 50.9296 126.34 50.8491C126.711 50.7651 127.084 50.6986 127.458 50.6496C127.948 50.5866 128.346 50.5394 128.65 50.5079C128.958 50.4729 129.182 50.4151 129.322 50.3346C129.465 50.2541 129.537 50.1142 129.537 49.9147V49.8727C129.537 49.3548 129.395 48.9523 129.112 48.6653C128.832 48.3784 128.407 48.2349 127.836 48.2349C127.245 48.2349 126.781 48.3644 126.445 48.6234C126.109 48.8823 125.873 49.1588 125.737 49.4527L124.561 49.0328C124.771 48.5429 125.051 48.1614 125.401 47.8884C125.754 47.612 126.139 47.4195 126.556 47.311C126.975 47.199 127.388 47.143 127.794 47.143C128.053 47.143 128.351 47.1745 128.687 47.2375C129.026 47.297 129.353 47.4213 129.668 47.6102C129.987 47.7992 130.251 48.0844 130.461 48.4659C130.671 48.8473 130.776 49.3583 130.776 49.9987V55.311H129.537V54.2192H129.474C129.39 54.3941 129.25 54.5814 129.054 54.7808C128.858 54.9803 128.598 55.15 128.272 55.29C127.947 55.43 127.549 55.5 127.08 55.5ZM127.269 54.3871C127.759 54.3871 128.172 54.2909 128.508 54.0984C128.848 53.9059 129.103 53.6575 129.275 53.353C129.45 53.0485 129.537 52.7283 129.537 52.3924V51.2585C129.485 51.3215 129.369 51.3793 129.191 51.4317C129.016 51.4807 128.813 51.5245 128.582 51.563C128.354 51.598 128.132 51.6295 127.915 51.6575C127.702 51.682 127.528 51.703 127.395 51.7205C127.073 51.7625 126.773 51.8307 126.493 51.9252C126.216 52.0162 125.992 52.1544 125.821 52.3399C125.653 52.5219 125.569 52.7703 125.569 53.0853C125.569 53.5157 125.728 53.8412 126.046 54.0617C126.368 54.2786 126.776 54.3871 127.269 54.3871Z" fill="white"/>
<path d="M119.779 49.0538L118.666 49.3688C118.597 49.1833 118.493 49.0031 118.357 48.8281C118.224 48.6496 118.042 48.5026 117.811 48.3871C117.58 48.2716 117.284 48.2139 116.924 48.2139C116.43 48.2139 116.019 48.3276 115.69 48.5551C115.365 48.7791 115.202 49.0643 115.202 49.4108C115.202 49.7187 115.314 49.9619 115.538 50.1404C115.762 50.3189 116.112 50.4676 116.588 50.5866L117.785 50.8806C118.506 51.0555 119.043 51.3233 119.396 51.6837C119.75 52.0407 119.926 52.5009 119.926 53.0643C119.926 53.5262 119.793 53.9392 119.527 54.3031C119.265 54.6671 118.897 54.9541 118.425 55.164C117.953 55.374 117.403 55.479 116.777 55.479C115.954 55.479 115.274 55.3005 114.735 54.9436C114.196 54.5866 113.855 54.0652 113.711 53.3793L114.887 53.0853C114.999 53.5192 115.211 53.8447 115.522 54.0617C115.837 54.2786 116.248 54.3871 116.756 54.3871C117.333 54.3871 117.792 54.2646 118.131 54.0197C118.474 53.7712 118.646 53.4737 118.646 53.1273C118.646 52.8473 118.548 52.6129 118.352 52.4239C118.156 52.2314 117.855 52.0879 117.449 51.9934L116.105 51.6785C115.366 51.5035 114.824 51.2323 114.478 50.8648C114.135 50.4939 113.963 50.0302 113.963 49.4737C113.963 49.0188 114.091 48.6163 114.346 48.2664C114.605 47.9164 114.957 47.6417 115.401 47.4422C115.849 47.2428 116.357 47.143 116.924 47.143C117.722 47.143 118.348 47.318 118.803 47.668C119.261 48.0179 119.587 48.4799 119.779 49.0538Z" fill="white"/>
<path d="M106.956 55.311V50.4606C106.956 49.9917 107.045 49.5927 107.223 49.2638C107.402 48.9348 107.645 48.6846 107.953 48.5131C108.264 48.3416 108.618 48.2559 109.013 48.2559C109.587 48.2559 110.039 48.4344 110.368 48.7913C110.697 49.1448 110.861 49.6382 110.861 50.2716V55.311H112.1V50.1877C112.1 49.5017 111.986 48.9348 111.759 48.4869C111.531 48.0354 111.213 47.6995 110.803 47.479C110.394 47.255 109.916 47.143 109.37 47.143C108.761 47.143 108.264 47.269 107.879 47.521C107.495 47.7695 107.208 48.0984 107.019 48.5079H106.914V47.248H105.717V55.311H106.956Z" fill="white"/>
<path fill-rule="evenodd" clip-rule="evenodd" d="M100.056 55.5C99.5447 55.5 99.081 55.4038 98.6646 55.2113C98.2481 55.0153 97.9174 54.7336 97.6725 54.3661C97.4275 53.9952 97.305 53.5472 97.305 53.0223C97.305 52.5604 97.396 52.1859 97.578 51.8989C97.7599 51.6085 98.0032 51.381 98.3076 51.2165C98.6121 51.052 98.9481 50.9296 99.3155 50.8491C99.6865 50.7651 100.059 50.6986 100.434 50.6496C100.924 50.5866 101.321 50.5394 101.625 50.5079C101.933 50.4729 102.157 50.4151 102.297 50.3346C102.441 50.2541 102.512 50.1142 102.512 49.9147V49.8727C102.512 49.3548 102.371 48.9523 102.087 48.6653C101.807 48.3784 101.382 48.2349 100.812 48.2349C100.22 48.2349 99.7564 48.3644 99.4205 48.6234C99.0845 48.8823 98.8483 49.1588 98.7118 49.4527L97.536 49.0328C97.7459 48.5429 98.0259 48.1614 98.3759 47.8884C98.7293 47.612 99.1143 47.4195 99.5307 47.311C99.9507 47.199 100.364 47.143 100.77 47.143C101.029 47.143 101.326 47.1745 101.662 47.2375C102.001 47.297 102.329 47.4213 102.644 47.6102C102.962 47.7992 103.226 48.0844 103.436 48.4659C103.646 48.8473 103.751 49.3583 103.751 49.9987V55.311H102.512V54.2192H102.449C102.365 54.3941 102.225 54.5814 102.029 54.7808C101.833 54.9803 101.573 55.15 101.247 55.29C100.922 55.43 100.525 55.5 100.056 55.5ZM100.245 54.3871C100.735 54.3871 101.148 54.2909 101.483 54.0984C101.823 53.9059 102.078 53.6575 102.25 53.353C102.425 53.0485 102.512 52.7283 102.512 52.3924V51.2585C102.46 51.3215 102.344 51.3793 102.166 51.4317C101.991 51.4807 101.788 51.5245 101.557 51.563C101.33 51.598 101.107 51.6295 100.89 51.6575C100.677 51.682 100.504 51.703 100.371 51.7205C100.049 51.7625 99.7477 51.8307 99.4677 51.9252C99.1913 52.0162 98.9673 52.1544 98.7958 52.3399C98.6278 52.5219 98.5439 52.7703 98.5439 53.0853C98.5439 53.5157 98.7031 53.8412 99.0215 54.0617C99.3435 54.2786 99.7512 54.3871 100.245 54.3871Z" fill="white"/>
<path d="M92.4786 47.248V55.311H93.7175V50.2086C93.7175 49.8447 93.805 49.521 93.9799 49.2375C94.1584 48.9505 94.3999 48.7266 94.7044 48.5656C95.0123 48.4011 95.3623 48.3189 95.7542 48.3189C95.9187 48.3189 96.0744 48.3311 96.2214 48.3556C96.3719 48.3766 96.4681 48.3923 96.5101 48.4028V47.143C96.4401 47.136 96.3369 47.1308 96.2004 47.1273C96.0639 47.1238 95.9502 47.122 95.8592 47.122C95.3763 47.122 94.9423 47.2462 94.5574 47.4947C94.1724 47.7432 93.9065 48.0669 93.7595 48.4658H93.6755V47.248H92.4786Z" fill="white"/>
<path d="M90.9107 47.248V48.2979H89.189V53.0013C89.189 53.3512 89.2397 53.6137 89.3412 53.7887C89.4462 53.9602 89.5792 54.0756 89.7401 54.1351C89.9046 54.1911 90.0779 54.2191 90.2598 54.2191C90.3963 54.2191 90.5083 54.2121 90.5958 54.1981L90.8058 54.1561L91.0577 55.269C90.9737 55.3005 90.8565 55.332 90.706 55.3635C90.5555 55.3985 90.3648 55.416 90.1338 55.416C89.7839 55.416 89.4409 55.3407 89.105 55.1903C88.7725 55.0398 88.496 54.8106 88.2756 54.5026C88.0586 54.1946 87.9501 53.8062 87.9501 53.3372V48.2979H86.7323V47.248H87.9501V45.3162H89.189V47.248H90.9107Z" fill="white"/>
<rect x="149" y="38.5" width="41" height="20" rx="10" fill="#19AA52"/>
<path d="M157.893 52.5V43.7727H159.167V47.0156H159.244C159.318 46.8793 159.424 46.7216 159.563 46.5426C159.703 46.3636 159.896 46.2074 160.143 46.0739C160.39 45.9375 160.717 45.8693 161.123 45.8693C161.652 45.8693 162.123 46.0028 162.538 46.2699C162.953 46.5369 163.278 46.9219 163.514 47.4247C163.752 47.9276 163.872 48.5327 163.872 49.2401C163.872 49.9474 163.754 50.554 163.518 51.0597C163.282 51.5625 162.958 51.9503 162.546 52.223C162.135 52.4929 161.664 52.6278 161.136 52.6278C160.738 52.6278 160.413 52.5611 160.16 52.4276C159.91 52.294 159.714 52.1378 159.572 51.9588C159.43 51.7798 159.321 51.6207 159.244 51.4815H159.137V52.5H157.893ZM159.142 49.2273C159.142 49.6875 159.208 50.0909 159.342 50.4375C159.475 50.7841 159.669 51.0554 159.921 51.2514C160.174 51.4446 160.484 51.5412 160.85 51.5412C161.231 51.5412 161.549 51.4403 161.805 51.2386C162.061 51.0341 162.254 50.7571 162.385 50.4077C162.518 50.0582 162.585 49.6648 162.585 49.2273C162.585 48.7955 162.519 48.4077 162.389 48.0639C162.261 47.7202 162.068 47.4489 161.809 47.25C161.554 47.0511 161.234 46.9517 160.85 46.9517C160.481 46.9517 160.169 47.0469 159.913 47.2372C159.66 47.4276 159.468 47.6932 159.338 48.0341C159.207 48.375 159.142 48.7727 159.142 49.2273ZM167.883 52.6321C167.239 52.6321 166.683 52.4943 166.217 52.2188C165.754 51.9403 165.396 51.5497 165.143 51.0469C164.893 50.5412 164.768 49.9489 164.768 49.2699C164.768 48.5994 164.893 48.0085 165.143 47.4972C165.396 46.9858 165.749 46.5866 166.2 46.2997C166.655 46.0128 167.186 45.8693 167.794 45.8693C168.163 45.8693 168.521 45.9304 168.868 46.0526C169.214 46.1747 169.526 46.3665 169.801 46.6278C170.077 46.8892 170.294 47.2287 170.453 47.6463C170.612 48.0611 170.692 48.5653 170.692 49.1591V49.6108H165.489V48.6562H169.443C169.443 48.321 169.375 48.0241 169.239 47.7656C169.102 47.5043 168.91 47.2983 168.663 47.1477C168.419 46.9972 168.132 46.9219 167.803 46.9219C167.445 46.9219 167.132 47.0099 166.865 47.1861C166.601 47.3594 166.396 47.5866 166.251 47.8679C166.109 48.1463 166.038 48.4489 166.038 48.7756V49.5213C166.038 49.9588 166.115 50.331 166.268 50.6378C166.425 50.9446 166.642 51.179 166.92 51.3409C167.199 51.5 167.524 51.5795 167.896 51.5795C168.138 51.5795 168.358 51.5455 168.557 51.4773C168.756 51.4062 168.928 51.3011 169.072 51.1619C169.217 51.0227 169.328 50.8509 169.405 50.6463L170.611 50.8636C170.514 51.2187 170.341 51.5298 170.091 51.7969C169.844 52.0611 169.533 52.267 169.158 52.4148C168.785 52.5597 168.361 52.6321 167.883 52.6321ZM174.921 45.9545V46.9773H171.346V45.9545H174.921ZM172.304 44.3864H173.579V50.5781C173.579 50.8253 173.615 51.0114 173.689 51.1364C173.763 51.2585 173.858 51.3423 173.975 51.3878C174.094 51.4304 174.223 51.4517 174.363 51.4517C174.465 51.4517 174.554 51.4446 174.631 51.4304C174.708 51.4162 174.767 51.4048 174.81 51.3963L175.04 52.4489C174.966 52.4773 174.861 52.5057 174.725 52.5341C174.588 52.5653 174.418 52.5824 174.213 52.5852C173.878 52.5909 173.566 52.5312 173.276 52.4062C172.986 52.2812 172.752 52.0881 172.573 51.8267C172.394 51.5653 172.304 51.2372 172.304 50.8423V44.3864ZM177.995 52.6449C177.58 52.6449 177.205 52.5682 176.87 52.4148C176.535 52.2585 176.269 52.0327 176.073 51.7372C175.88 51.4418 175.783 51.0795 175.783 50.6506C175.783 50.2812 175.854 49.9773 175.997 49.7386C176.139 49.5 176.33 49.3111 176.572 49.1719C176.813 49.0327 177.083 48.9276 177.381 48.8565C177.68 48.7855 177.984 48.7315 178.293 48.6946C178.685 48.6491 179.004 48.6122 179.248 48.5838C179.492 48.5526 179.67 48.5028 179.781 48.4347C179.891 48.3665 179.947 48.2557 179.947 48.1023V48.0724C179.947 47.7003 179.842 47.4119 179.631 47.2074C179.424 47.0028 179.114 46.9006 178.702 46.9006C178.274 46.9006 177.935 46.9957 177.688 47.1861C177.444 47.3736 177.275 47.5824 177.181 47.8125L175.984 47.5398C176.126 47.142 176.333 46.821 176.606 46.5767C176.881 46.3295 177.198 46.1506 177.556 46.0398C177.914 45.9261 178.291 45.8693 178.685 45.8693C178.947 45.8693 179.224 45.9006 179.516 45.9631C179.812 46.0227 180.087 46.1335 180.343 46.2955C180.602 46.4574 180.813 46.6889 180.978 46.9901C181.143 47.2884 181.225 47.6761 181.225 48.1534V52.5H179.981V51.6051H179.93C179.847 51.7699 179.724 51.9318 179.559 52.0909C179.394 52.25 179.183 52.3821 178.924 52.4872C178.666 52.5923 178.356 52.6449 177.995 52.6449ZM178.272 51.6222C178.624 51.6222 178.926 51.5526 179.176 51.4134C179.428 51.2741 179.62 51.0923 179.751 50.8679C179.884 50.6406 179.951 50.3977 179.951 50.1392V49.2955C179.906 49.3409 179.818 49.3835 179.687 49.4233C179.559 49.4602 179.413 49.4929 179.248 49.5213C179.083 49.5469 178.923 49.571 178.766 49.5938C178.61 49.6136 178.479 49.6307 178.374 49.6449C178.127 49.6761 177.901 49.7287 177.697 49.8026C177.495 49.8764 177.333 49.983 177.211 50.1222C177.092 50.2585 177.032 50.4403 177.032 50.6676C177.032 50.983 177.149 51.2216 177.381 51.3835C177.614 51.5426 177.911 51.6222 178.272 51.6222Z" fill="white"/>
</svg>
