<svg class="svg-icon" viewBox="0 0 20 20" fill="#FFFFFF" xmlns="http://www.w3.org/2000/svg">
    <path d="M14.1667 1.66669V10.8334M18.3333 8.16669V4.33335C18.3333 3.39993 18.3333 2.93322 18.1517 2.5767C17.9919 2.2631 17.7369 2.00813 17.4233 1.84834C17.0668 1.66669 16.6001 1.66669 15.6667 1.66669H6.76501C5.54711 1.66669 4.93816 1.66669 4.44632 1.88955C4.01284 2.08597 3.64442 2.40204 3.38437 2.80062C3.08931 3.25285 2.99672 3.85472 2.81153 5.05846L2.37563 7.89179C2.13137 9.47945 2.00925 10.2733 2.24484 10.891C2.45162 11.4331 2.84054 11.8864 3.34494 12.1732C3.91961 12.5 4.72278 12.5 6.32912 12.5H7C7.46671 12.5 7.70007 12.5 7.87833 12.5908C8.03513 12.6707 8.16261 12.7982 8.24251 12.955C8.33334 13.1333 8.33334 13.3666 8.33334 13.8334V16.2785C8.33334 17.4134 9.25333 18.3334 10.3882 18.3334C10.6589 18.3334 10.9042 18.1739 11.0141 17.9266L13.8148 11.6252C13.9421 11.3386 14.0058 11.1953 14.1065 11.0902C14.1955 10.9973 14.3048 10.9263 14.4258 10.8827C14.5627 10.8334 14.7195 10.8334 15.0332 10.8334H15.6667C16.6001 10.8334 17.0668 10.8334 17.4233 10.6517C17.7369 10.4919 17.9919 10.2369 18.1517 9.92334C18.3333 9.56682 18.3333 9.10011 18.3333 8.16669Z" stroke="white" stroke-width="1.67" stroke-linecap="round" stroke-linejoin="round"/>
</svg>