<svg class="svg-icon" viewBox="0 0 20 20" fill="none" xmlns="http://www.w3.org/2000/svg">
    <path d="M5.83332 18.3334V9.16669M1.66666 10.8334V16.6667C1.66666 17.5872 2.41285 18.3334 3.33332 18.3334H14.5219C15.7558 18.3334 16.8052 17.4331 16.9928 16.2135L17.8902 10.3802C18.1232 8.86577 16.9515 7.50002 15.4193 7.50002H12.5C12.0398 7.50002 11.6667 7.12692 11.6667 6.66669V3.72155C11.6667 2.58668 10.7467 1.66669 9.61179 1.66669C9.3411 1.66669 9.09581 1.8261 8.98587 2.07346L6.05327 8.6718C5.91952 8.97274 5.62109 9.16669 5.29176 9.16669H3.33332C2.41285 9.16669 1.66666 9.91288 1.66666 10.8334Z" stroke="white" stroke-width="1.67" stroke-linecap="round" stroke-linejoin="round"/>
</svg>